<svg width="618" height="246" xmlns="http://www.w3.org/2000/svg" xmlns:xlink="http://www.w3.org/1999/xlink" overflow="hidden"><g transform="translate(69 -416)"><rect x="88.5001" y="505.5" width="118" height="71" stroke="#02193B" stroke-width="1.33333" stroke-miterlimit="8" fill="#7F7F7F"/><text fill="#FFFFFF" font-family="Arial,Arial_MSFontService,sans-serif" font-weight="400" font-size="24" transform="translate(110.318 549)">Verilog</text><rect x="244.5" y="505.5" width="118" height="71" stroke="#02193B" stroke-width="1.33333" stroke-miterlimit="8" fill="#C8F0FC"/><text font-family="Arial,Arial_MSFontService,sans-serif" font-weight="700" font-size="24" transform="translate(266.786 549)">Picker</text><rect x="427.5" y="417.5" width="118" height="71" stroke="#02193B" stroke-width="1.33333" stroke-miterlimit="8" fill="#C8F0FC"/><text font-family="Arial,Arial_MSFontService,sans-serif" font-weight="700" font-size="24" transform="translate(445.012 461)">Python</text><rect x="427.5" y="505.5" width="118" height="71" stroke="#02193B" stroke-width="1.33333" stroke-miterlimit="8" fill="#C8F0FC"/><text font-family="Arial,Arial_MSFontService,sans-serif" font-weight="700" font-size="24" transform="translate(451.012 549)">C/C++</text><rect x="427.5" y="591.5" width="118" height="70" stroke="#02193B" stroke-width="1.33333" stroke-miterlimit="8" fill="#C8F0FC"/><text font-family="Microsoft YaHei,Microsoft YaHei_MSFontService,sans-serif" font-weight="700" font-size="24" transform="translate(437.679 634)">其他语言</text><path d="M206 539 237.156 539 237.156 541 206 541ZM235.823 536 243.823 540 235.823 544Z" fill="#0C4994"/><path d="M0.80427-0.594265 61.7595 81.9017 60.1509 83.0902-0.80427 0.594265ZM63.3799 79.0465 64.917 87.8577 56.9458 83.8006Z" fill="#0C4994" transform="matrix(1 0 0 -1 362 540.858)"/><path d="M362 539 420.25 539 420.25 541 362 541ZM418.917 536 426.917 540 418.917 544Z" fill="#0C4994"/><path d="M362.796 539.395 423.68 619.53 422.088 620.74 361.204 540.605ZM425.262 616.653 426.917 625.443 418.892 621.493Z" fill="#0C4994"/><rect x="-67.5001" y="505.5" width="118" height="71" stroke="#02193B" stroke-width="1.33333" stroke-miterlimit="8" fill="#7F7F7F"/><text fill="#FFFFFF" font-family="Arial,Arial_MSFontService,sans-serif" font-weight="400" font-size="24" transform="translate(-42.1439 549)">Chisel</text><path d="M50 539 81.1561 539 81.1561 541 50 541ZM79.8228 536 87.8228 540 79.8228 544Z" fill="#0C4994"/></g></svg>