<svg width="645" height="267" xmlns="http://www.w3.org/2000/svg" xmlns:xlink="http://www.w3.org/1999/xlink" overflow="hidden"><defs><clipPath id="clip0"><rect x="-96" y="402" width="645" height="267"/></clipPath></defs><g clip-path="url(#clip0)" transform="translate(96 -402)"><rect x="75.5001" y="505.5" width="118" height="71" stroke="#02193B" stroke-width="1.33333" stroke-miterlimit="8" fill="#7F7F7F"/><text fill="#FFFFFF" font-family="Arial,Arial_MSFontService,sans-serif" font-weight="400" font-size="24" transform="translate(89.7353 535)">Verilator</text><text fill="#FFFFFF" font-family="Arial,Arial_MSFontService,sans-serif" font-weight="400" font-size="24" transform="translate(99.0753 564)">C/C++</text><rect x="244.5" y="505.5" width="118" height="71" stroke="#02193B" stroke-width="1.33333" stroke-miterlimit="8" fill="#C8F0FC"/><text font-family="Arial,Arial_MSFontService,sans-serif" font-weight="700" font-size="24" transform="translate(266.786 549)">Picker</text><rect x="427.5" y="505.5" width="118" height="70" stroke="#02193B" stroke-width="1.33333" stroke-miterlimit="8" fill="#C8F0FC"/><text font-family="Arial,Arial_MSFontService,sans-serif" font-weight="700" font-size="24" transform="translate(451.012 548)">C/C++</text><rect x="427.5" y="597.5" width="118" height="70" stroke="#02193B" stroke-width="1.33333" stroke-miterlimit="8" fill="#C8F0FC"/><text font-family="Arial,Arial_MSFontService,sans-serif" font-weight="700" font-size="24" transform="translate(445.012 641)">Python</text><path d="M193 539 237.405 539 237.405 541 193 541ZM236.072 536 244.072 540 236.072 544Z" fill="#0C4994"/><path d="M0.876507-0.481389 62.5842 111.875 60.8312 112.838-0.876507 0.481389ZM64.5719 109.262 64.917 118.2 57.5598 113.113Z" fill="#0C4994" transform="matrix(1 0 0 -1 362 540.2)"/><path d="M0.0101315-0.999949 58.2608-0.40975 58.2405 1.59015-0.0101315 0.999949ZM56.9579-3.4231 64.917 0.657743 56.8768 4.57649Z" fill="#0C4994" transform="matrix(1 0 0 -1 362 540.658)"/><path d="M362.816 539.423 423.884 625.764 422.251 626.919 361.184 540.577ZM425.563 622.944 426.917 631.785 419.032 627.563Z" fill="#0C4994"/><rect x="-94.5001" y="505.5" width="118" height="71" stroke="#02193B" stroke-width="1.33333" stroke-miterlimit="8" fill="#7F7F7F"/><text fill="#FFFFFF" font-family="Arial,Arial_MSFontService,sans-serif" font-weight="400" font-size="24" transform="translate(-66.2868 549)">chisel</text><rect x="427.5" y="403.5" width="118" height="71" stroke="#02193B" stroke-width="1.33333" stroke-miterlimit="8" fill="#C8F0FC"/><text font-family="Microsoft YaHei,Microsoft YaHei_MSFontService,sans-serif" font-weight="700" font-size="24" transform="translate(437.679 447)">其他语言</text><path d="M23 541 67.4053 541 67.4052 543 23 543ZM66.0719 538 74.0719 542 66.0719 546Z" fill="#0C4994"/></g></svg>